<svg xmlns="http://www.w3.org/2000/svg" viewBox="170 80 255 150"><title>Aleyhissalam</title><g fill="#005aff"><path d="M261.99 153.55c-0.58,4.91 -0.97,7.37 -1.18,7.37 -0.21,0 -0.6,-2.01 -1.18,-6.04 -0.99,-6.43 -5.75,-13.75 -14.27,-21.96 -10.46,-9.94 -18.1,-17.89 -22.91,-23.85 -1.26,-1.73 -2.93,-4.11 -5.02,-7.14 -0.68,-1 -1.39,-1.7 -2.12,-2.12 -0.42,-0.26 -0.63,-0.68 -0.63,-1.26l0 -5.25c0,-1.05 0.19,-1.57 0.55,-1.57 0.26,0 0.73,0.26 1.41,0.78l9.97 7.61c0.73,0.58 1.09,1.02 1.09,1.34 0,0.21 -0.28,0.31 -0.86,0.31 -0.83,0 -2.22,-0.21 -4.15,-0.63 1.62,2.2 5.57,6.49 11.84,12.87 4.55,4.55 9.1,9.07 13.65,13.57 9.26,9.41 13.89,17.47 13.89,24.16 0,0.63 -0.03,1.23 -0.08,1.81zm43.81 4.47c3.19,0 6.25,-1.16 9.18,-3.49 0.26,-0.21 1.46,-1.45 3.61,-3.73 1.98,-2.12 3.06,-3.18 3.21,-3.18 0.47,0 0.55,0.47 0.24,1.42 -0.42,1.22 -0.63,2.02 -0.63,2.39 0,0.89 0.38,1.91 1.14,3.06 0.99,1.51 2.3,2.27 3.92,2.27 4.29,0 7.96,-3.08 11.02,-9.25 0.32,-0.63 0.68,-0.94 1.1,-0.94 0.34,0 0.51,0.28 0.51,0.86 0,0.21 -0.03,0.55 -0.1,1.02 -0.06,0.47 -0.1,0.82 -0.1,1.06 0,1.8 0.56,3.27 1.67,4.39 1.11,1.13 2.53,1.69 4.26,1.69 2.51,0 5.15,-0.98 7.5,-2.91 0.68,-0.58 1.02,-2.67 1.02,-6.28 0,-2.19 -0.56,-11.02 -1.69,-26.47 -1.12,-15.46 -1.68,-24.57 -1.68,-27.34 0,-2.51 -0.39,-4.58 -1.18,-6.2 0,-0.89 0.73,-3.06 2.2,-6.51 0.15,-0.42 0.31,-0.63 0.47,-0.63 0.16,0 0.34,0.24 0.55,0.71 0.42,0.89 1.38,3.35 2.9,7.37 1.57,4.19 2.51,6.75 2.82,7.69 0.16,0.79 0.24,1.33 0.24,1.65 0,1.15 -1.1,0.47 -3.29,-2.04 -0.27,-0.37 -0.4,-0.21 -0.4,0.47 0,0.16 0.5,7.03 1.49,20.63 1,13.6 1.49,21.7 1.49,24.32 0,7.58 -1.36,13.55 -4.07,17.89 -2.31,3.66 -5.23,5.49 -8.37,5.49 -3.95,0 -6.77,-2.5 -8.48,-7.49 -0.2,-0.65 -0.44,-0.65 -0.7,0 -2.25,5.78 -5.43,8.67 -9.53,8.67 -4.19,0 -6.67,-2.64 -7.45,-7.92 -0.06,-0.45 -0.12,-0.67 -0.2,-0.67 -0.08,0.05 -0.24,0.27 -0.47,0.67 -1,1.64 -2.47,3.33 -4.43,5.05 -3.11,2.78 -6.2,4.16 -9.26,4.16 -3.4,0 -5.77,-1.02 -7.1,-3.06 -0.81,-1.28 -1.27,-3.18 -1.37,-5.68 -0.03,-0.29 -0.16,-0.44 -0.4,-0.44 -0.41,0 -0.83,0.25 -1.25,0.75 -2.61,3.03 -4.3,4.88 -5.06,5.53 -3.32,2.85 -6.93,4.28 -10.59,4.28 -3.92,0 -6.75,-1.52 -8.47,-4.55 -1.15,-1.99 -1.94,-5.21 -2.36,-9.65 -1.46,7.11 -2.87,11.63 -4.23,13.57 -3.09,4.44 -6.64,7.58 -10.67,9.41 -1.57,0.68 -4.26,1.52 -8.08,2.51 -3.82,1 -6.62,1.6 -8.39,1.81 -0.74,0.05 -1.1,-0.03 -1.1,-0.24 0,-0.21 0.34,-0.52 1.02,-0.94 3.55,-2.04 9.23,-5.44 17.02,-10.2 8.79,-5.75 13.18,-14.2 13.18,-25.34 0,-14.48 -0.68,-27.11 -2.04,-37.89 -0.37,-3.55 -1.1,-8.6 -2.2,-15.14 0.58,-3.76 1.02,-6.04 1.34,-6.82 0.2,-0.58 0.39,-0.87 0.55,-0.87 0.15,0 0.34,0.29 0.54,0.87 1.73,5.59 3.12,12.68 4.16,21.26 0.74,5.75 1.26,14.69 1.57,26.83 0.32,10.93 0.73,17.7 1.26,20.31 0.63,2.98 1.59,5.03 2.9,6.12 0.94,0.74 2.27,1.1 4,1.1 3.85,0 7.32,-1.01 10.2,-3.02 1.15,-0.81 3.75,-3.24 7.8,-7.29 0.5,-0.5 0.97,-0.75 1.42,-0.75 0.7,0 0.9,0.47 0.58,1.41 -0.31,0.94 -0.47,1.82 -0.47,2.63 0,1.8 0.75,3.2 2.24,4.2 1.41,0.94 3.24,1.41 5.49,1.41z"/><path d="M237.9 150.36c0,-0.62 -1.21,-1.45 -3.64,-2.47 -2.44,-1.02 -4.23,-1.42 -5.38,-1.21 -0.42,0.1 -0.58,0.26 -0.47,0.47 0.42,1.15 1.31,3.06 2.67,5.72 3.55,-1.15 5.83,-1.98 6.82,-2.51zm-30.28 15.54c7.16,-5.65 14.04,-9.57 20.63,-11.77 -0.47,-0.79 -1.15,-2.09 -2.04,-3.92 -0.42,-0.89 -0.62,-1.96 -0.62,-3.22 0,-2.04 0.52,-3.76 1.57,-5.18 1.2,-1.72 3,-2.59 5.41,-2.59 1.88,0 4.57,1.23 8.08,3.69 3.71,2.51 5.57,4.6 5.57,6.28 -0.52,2.19 -1.18,4.26 -1.96,6.2 -2.98,0.88 -6.59,2.01 -10.83,3.37 0.16,2.4 -0.08,3.61 -0.7,3.61 -0.48,0 -0.97,-0.92 -1.5,-2.75 -1.93,0.68 -4.62,1.83 -8.08,3.45 -5.02,2.3 -8.81,4.47 -11.37,6.51 -3.92,3.09 -7.9,6.83 -11.93,11.22 -4.6,5.08 -7.27,7.93 -8,8.55 -2.51,2.25 -4.97,3.38 -7.37,3.38 -2.62,0 -4.92,-1.19 -6.9,-3.57 -1.99,-2.38 -2.99,-5.32 -2.99,-8.83 0,-4.86 1.99,-11.16 5.97,-18.9 0.41,-0.79 0.75,-1.18 1.02,-1.18 0.1,0 0.15,0.1 0.15,0.31 0,0.79 -0.86,3.49 -2.59,8.12 -1.72,4.63 -2.59,8.3 -2.59,11.02 0,2.04 0.5,3.71 1.5,4.99 0.99,1.28 2.4,1.92 4.23,1.92 2.51,0 5.26,-1.23 8.24,-3.69 1.57,-1.31 4.26,-4.08 8.08,-8.32 3.66,-4.02 6.67,-6.92 9.02,-8.7z"/><path d="M298.1 211.64l2 -4.12c0.16,-0.31 0.33,-0.47 0.51,-0.47 0.26,0 1.39,0.68 3.37,2.04 1.99,1.36 2.99,2.16 2.99,2.39 0,0.89 -0.88,2.75 -2.63,5.57 -0.21,0.34 -0.43,0.43 -0.67,0.28 -1.73,-1.28 -3.67,-2.63 -5.84,-4.04 -0.74,1.64 -1.45,3.04 -2.16,4.19 -0.21,0.37 -0.43,0.46 -0.67,0.28 -1.96,-1.49 -3.99,-2.89 -6.08,-4.2 -0.1,-0.08 -0.1,-0.23 0,-0.47l2.51 -5.14c0.16,-0.31 0.33,-0.47 0.51,-0.47 0.24,0 1.19,0.56 2.87,1.69 1.67,1.12 2.77,1.95 3.29,2.47z"/><path d="M278.43 116.59c20.19,-7.5 41.29,-15.32 63.3,-23.46 0.85,-0.32 1.36,-0.43 1.52,-0.32 0.21,0.16 0.16,0.62 -0.16,1.36 -0.96,2.36 -1.74,3.78 -2.33,4.26 -18.22,6.71 -39.57,15.01 -64.05,24.9l0 -2.83c0.47,-1.26 1.04,-2.56 1.72,-3.91z"/><path d="M246.39 109.05c20.18,-7.5 41.28,-15.32 63.29,-23.46 0.86,-0.32 1.37,-0.42 1.53,-0.32 0.21,0.16 0.16,0.62 -0.16,1.37 -0.97,2.35 -1.75,3.77 -2.33,4.25 -18.23,6.71 -39.58,15.01 -64.05,24.9l0 -2.83c0.46,-1.25 1.04,-2.56 1.72,-3.91z"/><path d="M206.4 220.82c11.57,-4.29 23.66,-8.77 36.27,-13.44 0.49,-0.18 0.78,-0.24 0.87,-0.18 0.13,0.09 0.1,0.35 -0.09,0.78 -0.55,1.35 -1,2.16 -1.33,2.44 -10.45,3.84 -22.68,8.6 -36.71,14.27l0 -1.62c0.27,-0.72 0.6,-1.47 0.99,-2.25z"/><path d="M314.89 124.11c0,0.99 -0.22,2.01 -0.65,3.08 -0.58,1.37 -1.33,2.05 -2.25,2.05 -1.44,0 -2.47,-0.99 -3.08,-2.96 -0.68,2.53 -1.94,3.8 -3.76,3.8 -0.69,0 -1.28,-0.34 -1.79,-1.03 -0.59,-0.81 -0.88,-1.87 -0.88,-3.19l0 -3.12c0,-0.26 -0.17,-0.43 -0.51,-0.53 -0.34,-0.11 -0.51,-0.37 -0.51,-0.8 0,-0.69 0.29,-1.36 0.87,-2.02 0.53,-0.58 0.94,-0.87 1.22,-0.87 0.35,0 0.53,0.68 0.53,2.05 0,0.71 -0.06,1.31 -0.17,1.79 -0.11,0.48 -0.17,0.9 -0.17,1.25 0,0.74 0.15,1.45 0.46,2.13 0.35,0.79 0.79,1.18 1.33,1.18 0.68,0 1.32,-0.31 1.92,-0.93 0.59,-0.62 0.89,-1.35 0.89,-2.19 0,-0.48 -0.14,-1.3 -0.42,-2.47 -0.28,-1.17 -0.41,-1.89 -0.41,-2.17 0,-0.25 0.12,-0.65 0.38,-1.2 0.25,-0.54 0.44,-0.81 0.57,-0.81 0.22,0 0.52,0.77 0.89,2.32 0.37,1.54 0.55,2.68 0.55,3.42 0,2.13 0.83,3.2 2.48,3.2 0.71,0 1.15,-0.36 1.33,-1.07 -1.42,-2.49 -2.13,-4.39 -2.13,-5.71 0,-0.76 0.19,-1.43 0.57,-2.01 0.25,-0.41 0.43,-0.62 0.53,-0.65 0.1,0 0.18,0.26 0.23,0.76 0.07,0.71 0.19,1.3 0.34,1.75 0.03,0.05 0.37,0.93 1.03,2.63 0.4,1.01 0.61,1.79 0.61,2.32z"/><path d="M208.28 132.27c0.4,-1.3 0.49,-2.59 0.26,-3.88 -0.26,-1.42 -0.91,-2.14 -1.93,-2.14 -0.49,0 -1.16,0.24 -2.01,0.7 -0.84,0.47 -1.26,0.93 -1.26,1.37 0,1.03 1.64,2.34 4.94,3.95zm-2.54 5.74c-4.14,-2.14 -6.21,-4.39 -6.21,-6.75 0,-2.85 1.31,-5.45 3.94,-7.81 2.62,-2.36 4.8,-3.23 6.54,-2.61 1.47,0.54 2.21,2.12 2.21,4.75 0,2.36 -0.49,5.01 -1.47,7.95 2.09,1.2 3.41,2.22 3.94,3.07 0,1.11 -0.94,3 -2.81,5.68 -0.53,-0.85 -1.8,-1.88 -3.8,-3.08 -2.32,3.21 -5.26,6.13 -8.82,8.75 -4.05,2.99 -7.77,5.24 -11.16,6.75 -0.71,0.36 -4.63,1.85 -11.76,4.48 -1.11,0.4 -1.84,0.6 -2.2,0.6 -0.18,0 -0.27,-0.05 -0.27,-0.13 0,-0.27 0.63,-0.81 1.87,-1.61 5.26,-3.11 10.54,-6.25 15.84,-9.42 6.32,-3.83 11.04,-7.37 14.16,-10.62z"/><path d="M392.16 147.73c1.91,0 3.98,-0.33 6.2,-0.99 0.62,-0.17 0.93,-0.22 0.93,-0.14 0,0.08 -0.23,0.32 -0.7,0.72 -1.93,1.74 -4.41,2.61 -7.45,2.61 -0.94,0 -1.72,-0.25 -2.32,-0.74 -0.59,-0.49 -0.89,-1.12 -0.89,-1.87 0,-2.01 0.86,-4.11 2.58,-6.32 -1.51,-0.44 -2.27,-1.23 -2.27,-2.37 0,-0.97 0.61,-2.13 1.82,-3.48 1.2,-1.35 2.18,-2.03 2.91,-2.03 0.19,0 0.39,0.15 0.59,0.46 0.21,0.31 0.31,0.64 0.31,0.99 0,0.15 -0.21,0.52 -0.61,1.1 -0.41,0.58 -0.63,0.81 -0.67,0.7 -0.15,-0.6 -0.49,-0.9 -1.01,-0.9 -0.27,0 -0.61,0.23 -1,0.69 -0.4,0.47 -0.6,0.85 -0.6,1.16 0.49,0.79 1.31,1.19 2.47,1.19 0.38,0 0.99,-0.36 1.82,-1.07 0.49,-0.45 0.98,-0.9 1.48,-1.36 0.18,-0.14 0.26,0 0.26,0.4 0,0.89 -0.33,1.79 -0.98,2.7 -2.55,1.72 -4.45,3.7 -5.68,5.94 -0.23,0.42 -0.35,0.8 -0.35,1.13 0,0.99 1.05,1.48 3.16,1.48z"/><path d="M205.41 209.63c-2.88,0 -5.31,-2.25 -7.3,-6.75 -1.78,-3.94 -2.67,-8.08 -2.67,-12.39 0,-5.18 0.51,-9.31 1.53,-12.4 0.37,-1.1 0.66,-1.65 0.87,-1.65 0.33,0 0.41,0.7 0.23,2.08 -0.42,3.25 -0.63,6.03 -0.63,8.36 0,10.93 2.55,16.4 7.65,16.4 2.07,0 3.94,-1.6 5.61,-4.79 1.78,-3.82 3.54,-7.64 5.3,-11.45 1.56,-3.17 3.45,-5.84 5.64,-8 2.33,-2.31 4.44,-3.46 6.32,-3.46 1.8,0 3.77,1.98 5.88,5.92 1.99,3.69 3.87,5.95 5.65,6.79 2.28,1.07 6.32,2.03 11.74,2.86 6.93,1.05 14.93,1.57 24,1.57 14.38,0 29.26,-1.6 44.64,-4.82 15.61,-3.3 28.07,-7.49 37.38,-12.59 0.44,-0.24 0.75,-0.33 0.9,-0.28 0.19,0.08 0.24,0.37 0.16,0.87 -0.16,1.17 -0.24,2.21 -0.24,3.09 0,4.29 1.86,6.44 5.57,6.44 5.13,0 8.88,-1.57 10.94,-4.65 1.52,-2.25 2.28,-6.08 2.28,-11.49 0,-15.25 -0.66,-28.16 -1.96,-38.72 -0.63,-5.1 -1.43,-10.15 -2.4,-15.14 0.53,-3.3 1.02,-5.57 1.49,-6.83 0.21,-0.54 0.4,-0.82 0.55,-0.82 0.19,0 0.37,0.29 0.55,0.86 1.73,5.57 3.13,12.65 4.2,21.22 0.55,4.37 0.97,10.99 1.25,19.85 0.29,8.97 0.63,15.1 1.02,18.4 0.71,5.8 1.95,9.58 3.73,11.33 2.04,2.02 4.2,3.56 6.47,4.63l0 7.85c-3.4,-1.39 -6.01,-2.88 -7.84,-4.47 -2.85,-2.41 -4.74,-5.52 -5.65,-9.34 -0.45,5.73 -2.52,9.9 -6.24,12.51 -2.46,1.75 -5.35,2.65 -8.39,2.65 -2.46,0 -4.48,-0.86 -6.08,-2.59 -1.72,-1.85 -2.66,-4.45 -2.82,-7.8 -10.67,5.39 -23.47,9.71 -38.4,12.98 -14.38,3.14 -27.98,4.71 -40.79,4.71 -16.71,0 -28.87,-1.48 -36.06,-4.43 -2.33,-0.97 -4.34,-2.58 -6.04,-4.83 -0.18,-0.23 -1.29,-2.04 -3.33,-5.41 -1.02,-1.73 -2.02,-2.59 -2.98,-2.59 -2.93,0 -6.02,2.48 -9.26,7.45 -0.58,0.89 -1.61,3.2 -3.1,6.93 -1.49,3.72 -2.78,6.42 -3.88,8.1 -1.73,2.56 -3.56,3.84 -5.49,3.84z"/><path d="M361.12 102.37c0,-2.51 -0.39,-4.58 -1.17,-6.2 0,-0.92 0.73,-3.09 2.19,-6.51 0.19,-0.42 0.35,-0.63 0.48,-0.63 0.15,0 0.34,0.22 0.54,0.67 0.42,0.89 1.39,3.34 2.91,7.37 1.59,4.18 2.52,6.76 2.78,7.73 0.21,0.73 0.32,1.28 0.32,1.64 0,1.15 -1.11,0.46 -3.34,-2.07 -0.26,-0.37 -0.39,-0.21 -0.39,0.47 0,0.23 0.57,8.27 1.72,24.12 1.15,15.85 1.73,24.76 1.73,26.75 0,6.09 -0.93,11.45 -2.78,16.08 -0.4,0.95 -0.71,1.63 -0.95,2.04l0 0c-0.36,0.63 -0.58,0.72 -0.66,0.28 -0.11,-0.47 -0.07,-1.47 0.12,-2.98 0.23,-2.1 0.35,-4.53 0.35,-7.3 0,-2.51 -0.64,-12.84 -1.92,-30.99 -1.28,-18.14 -1.93,-28.3 -1.93,-30.47z"/><path d="M302.24 184.27c-1.41,0.2 -2.22,0.28 -2.41,0.25 -0.05,0 -0.07,-0.02 -0.07,-0.04 0.01,-0.08 0.56,-0.35 1.66,-0.81 1.03,-0.38 2.66,-1.18 4.87,-2.42 1.15,-0.83 2.79,-2.18 4.92,-4.05 1.47,-1.29 3,-2.36 4.58,-3.21 1.93,-1.02 3.78,-1.4 5.55,-1.15 0.42,0.07 0.95,0.26 1.61,0.6 0.65,0.33 1.22,0.54 1.71,0.61 0.91,0.13 1.7,-0.11 2.36,-0.71 0.55,-0.62 1.09,-1.25 1.63,-1.87 0.39,-0.45 0.71,-0.65 0.96,-0.61 0.12,0.01 0.17,0.13 0.13,0.35 -0.04,0.32 -0.27,0.83 -0.67,1.52 -0.2,0.35 0.63,0.66 2.5,0.94 0.19,0.03 0.31,-0.01 0.35,-0.1 0.03,-0.05 -0.01,-0.53 -0.12,-1.45 -0.04,-0.26 0.12,-0.6 0.48,-1.02 0.62,-0.76 0.97,-1.09 1.05,-0.98 0.38,0.51 0.5,1.22 0.37,2.13 -0.12,0.76 -0.42,1.62 -0.93,2.57 -0.5,0.96 -0.93,1.52 -1.28,1.69 -0.92,0.45 -2.2,0.11 -3.84,-1.01 -1.7,1.33 -3.26,1.89 -4.69,1.69 -0.42,-0.07 -0.93,-0.25 -1.55,-0.57 -0.62,-0.32 -1.09,-0.5 -1.41,-0.55 -2.43,-0.35 -5.07,0.44 -7.92,2.38 -2.08,1.53 -4.17,3.05 -6.27,4.58 -1.23,0.67 -2.42,1.09 -3.57,1.24z"/><path d="M246.96 92.32c0,0.48 -0.6,1.55 -1.79,3.22 -1.35,1.86 -2.62,3.23 -3.84,4.1 -0.78,0.55 -3.36,1.4 -7.76,2.56 -0.63,0.16 -1.01,0.24 -1.12,0.24l0 -0.06c0.1,-0.1 0.36,-0.32 0.77,-0.64 0.56,-0.44 2.12,-1.33 4.68,-2.67 2.45,-1.3 3.88,-2.14 4.3,-2.5 0.07,-0.07 0.11,-0.15 0.11,-0.22 0,-0.58 -2.18,-0.87 -6.53,-0.87 -0.02,0 -0.85,0.04 -2.5,0.11 -0.36,0.02 -0.64,0.01 -0.83,-0.01l0 -0.95 1.48 -2.5c0.45,-0.76 1.28,-1.24 2.48,-1.44 0.43,-0.07 1.44,-0.11 3.02,-0.11 5.02,0 7.53,0.58 7.53,1.74z"/><path d="M425.9 174.47c-0.58,1.75 -1.45,3.74 -2.63,5.96 -4.45,3.72 -8.09,6.37 -10.94,7.97 -4.97,2.79 -9.94,4.19 -14.91,4.19 -2.54,0 -4.44,-0.26 -5.73,-0.78l-1.56 -7.85c-3.04,-3.84 -4.55,-7.54 -4.55,-11.1 0,-5.59 1.71,-9.9 5.13,-12.9 2.93,-2.57 6.57,-3.85 10.91,-3.85 5.75,0 10.89,1.9 15.41,5.69 0.76,0.63 1.14,1.06 1.14,1.29 0,0.16 -0.14,0.24 -0.43,0.24 -0.37,0 -0.94,-0.14 -1.73,-0.43 -3.03,-1.1 -5.72,-1.65 -8.08,-1.65 -3.45,0 -6.99,0.52 -10.61,1.55 -3.62,1.03 -6.27,2.3 -7.94,3.79 0,3.71 1.29,7.37 3.88,10.98 3.17,4.39 7.21,6.59 12.12,6.59 2.54,0 5.85,-1.16 9.93,-3.49 3.32,-1.91 6.39,-4.1 9.22,-6.55 0.57,-0.5 0.99,-0.76 1.25,-0.79 0.42,0 0.46,0.38 0.12,1.14z"/></g></svg>