<svg version="1.0" xmlns="http://www.w3.org/2000/svg"
 viewBox="0 0 562 598"
 preserveAspectRatio="xMidYMid meet">
<metadata>
Created by potrace 1.16, written by Peter Selinger 2001-2019
</metadata>
<g transform="translate(0.000000,598.000000) scale(0.100000,-0.100000)"
fill="currentColor" stroke="none">
<path d="M2922 5772 c-42 -74 -106 -140 -261 -272 -147 -125 -221 -203 -285
-298 -56 -85 -116 -211 -116 -246 0 -35 -11 -38 -56 -15 -43 22 -80 19 -128
-11 l-28 -17 43 -31 c24 -16 58 -48 76 -70 35 -43 70 -109 62 -117 -3 -2 -27
3 -54 11 -104 31 -271 -20 -480 -146 -33 -20 -88 -49 -122 -64 -58 -27 -63
-31 -97 -99 -19 -40 -63 -121 -96 -182 -98 -175 -139 -332 -110 -419 6 -21 10
-40 7 -43 -19 -18 -140 77 -193 152 l-21 30 -22 -42 c-26 -52 -27 -89 -1 -130
22 -36 21 -38 -34 -47 -48 -9 -160 -64 -239 -118 -85 -58 -183 -154 -320 -312
-135 -157 -187 -205 -259 -242 l-49 -25 59 -39 c83 -55 115 -87 286 -277 83
-92 177 -188 208 -213 90 -72 222 -146 296 -166 37 -9 68 -18 70 -19 1 -1 -5
-16 -14 -34 -19 -37 -14 -115 8 -150 18 -30 23 -27 48 24 26 53 90 109 150
130 23 8 44 15 46 15 2 0 -6 -19 -16 -43 -43 -94 -21 -203 83 -397 33 -63 80
-154 104 -202 l43 -88 108 -54 c59 -29 136 -70 171 -90 180 -103 331 -135 418
-88 31 17 34 15 27 -15 -18 -75 -75 -144 -143 -174 -39 -17 -39 -24 -1 -44 37
-19 119 -19 146 0 25 17 34 11 34 -22 0 -60 97 -241 190 -353 19 -24 118 -117
219 -208 134 -121 198 -187 239 -245 l55 -78 33 59 c41 72 87 121 224 238 151
129 268 249 322 329 63 94 118 212 118 252 0 37 6 39 46 18 41 -21 93 -19 134
6 l35 22 -25 15 c-67 42 -175 180 -156 199 3 3 19 0 37 -6 81 -28 214 -2 360
73 57 28 152 78 212 110 l107 58 39 76 c21 42 64 122 95 177 94 167 130 305
106 404 -7 29 -11 54 -8 56 19 19 178 -109 193 -155 8 -27 21 -25 41 5 25 39
28 95 6 137 -22 43 -20 48 22 48 18 0 65 16 106 36 175 83 277 173 518 456
l82 97 0 116 0 117 -97 106 c-198 216 -279 295 -361 349 -94 63 -223 123 -264
123 -33 0 -32 -1 -13 36 8 16 15 46 15 67 0 41 -23 107 -38 107 -5 0 -17 -18
-27 -39 -24 -54 -81 -106 -141 -130 -59 -23 -71 -18 -48 18 10 14 19 54 22 90
5 75 -24 177 -79 279 -17 31 -63 118 -102 192 l-70 135 -121 63 c-387 200
-450 219 -555 172 -24 -11 -45 -20 -48 -20 -2 0 -1 15 2 33 14 65 71 134 138
169 21 10 37 24 34 31 -10 30 -143 42 -171 16 -20 -18 -36 -9 -36 21 0 42 -34
122 -93 220 -55 90 -138 179 -388 412 -81 76 -152 151 -175 187 -21 34 -41 61
-44 61 -3 -1 -20 -27 -38 -58z m67 -234 c40 -78 63 -111 153 -216 82 -94 172
-173 240 -211 26 -14 48 -29 48 -32 0 -3 -18 -11 -39 -18 -104 -31 -134 -175
-50 -245 33 -28 53 -32 95 -16 l27 11 -36 33 c-43 39 -47 70 -16 110 41 53
134 25 165 -50 41 -97 -17 -287 -118 -389 -19 -19 -20 -19 -31 -1 -7 10 -27
38 -44 61 -18 24 -33 46 -33 50 0 3 10 9 22 14 21 8 20 10 -19 30 -23 11 -52
21 -63 21 -47 0 -60 17 -60 80 0 32 -7 92 -16 132 -17 80 -13 135 14 180 14
24 14 30 3 37 -16 10 -84 -4 -89 -18 -2 -6 -9 -11 -16 -11 -8 0 -15 19 -19 49
-3 27 -17 71 -30 98 -34 66 -117 175 -131 170 -38 -13 -146 -223 -146 -284 0
-32 -15 -36 -54 -15 -31 17 -86 20 -86 5 0 -3 7 -29 15 -58 13 -44 15 -80 8
-207 l-8 -153 -52 3 c-41 3 -61 -1 -88 -18 -19 -12 -35 -23 -35 -25 0 -2 16
-12 35 -24 l35 -20 -32 -44 c-18 -24 -38 -53 -45 -63 -11 -18 -16 -14 -65 40
-101 108 -144 273 -96 366 26 50 75 82 111 71 43 -12 58 -27 64 -64 5 -33 2
-41 -31 -72 l-37 -35 27 -11 c64 -24 144 44 144 123 0 76 -42 125 -129 150 -7
2 15 21 50 43 76 47 270 237 326 320 22 33 52 84 67 113 14 28 28 52 30 52 2
0 18 -28 35 -62z m12 -441 c67 -45 104 -131 116 -266 6 -70 5 -74 -13 -67 -66
26 -209 26 -301 0 -27 -7 -26 -10 -12 93 14 104 34 162 71 207 49 60 86 69
139 33z m160 -429 c41 -20 97 -59 124 -85 88 -86 141 -220 133 -333 l-3 -45
-55 2 c-68 3 -292 42 -304 54 -16 15 25 23 57 11 25 -10 34 -8 55 8 13 11 37
20 51 20 57 0 111 73 92 123 -10 26 -51 63 -82 72 -41 13 -93 -36 -115 -108
-7 -23 -20 -32 -61 -46 -28 -10 -70 -30 -93 -45 -23 -15 -44 -25 -47 -23 -2 3
-11 51 -18 107 -15 111 -25 134 -51 108 -18 -18 -20 -47 -14 -213 5 -127 -8
-166 -67 -211 -45 -35 -112 -43 -137 -18 -16 15 -17 28 -12 86 6 57 5 68 -8
68 -14 0 -21 -17 -40 -102 -10 -42 -24 -34 -41 24 -18 63 -19 174 -1 249 26
113 120 232 228 289 84 45 106 49 229 47 99 -2 110 -4 180 -39z m838 -94 c36
-14 115 -49 176 -77 199 -94 179 -77 242 -212 97 -210 125 -291 131 -384 4
-64 2 -83 -8 -79 -6 2 -18 20 -24 39 -7 19 -35 75 -62 124 -69 126 -94 181
-113 250 -10 36 -22 60 -30 60 -18 0 -81 -91 -81 -116 0 -23 -7 -26 -82 -32
l-58 -6 0 69 c0 67 0 68 29 75 43 9 123 65 119 82 -2 10 -28 22 -68 32 -38 9
-123 48 -207 94 -79 42 -145 77 -147 77 -3 0 -17 5 -33 12 l-28 11 35 8 c53
11 134 0 209 -27z m-1884 -12 c56 -19 58 -33 4 -37 -39 -3 -69 -17 -241 -108
-59 -31 -125 -60 -148 -63 -34 -6 -38 -9 -28 -21 18 -22 64 -43 93 -43 24 0
25 -3 27 -60 0 -33 1 -65 2 -72 1 -8 -21 -11 -69 -11 l-70 1 -7 42 c-7 40 -31
80 -48 80 -4 0 -11 -15 -14 -34 -6 -33 -20 -61 -119 -247 -25 -48 -49 -107
-52 -133 -4 -25 -11 -46 -15 -46 -12 0 -30 85 -30 145 0 62 34 175 78 258 15
29 41 83 57 120 l30 68 157 75 c218 103 293 119 393 86z m1692 -117 c94 -39
153 -126 153 -223 0 -125 -123 -245 -234 -228 -102 17 -152 97 -111 176 19 37
49 53 85 45 42 -9 63 -38 58 -80 -3 -31 -1 -35 18 -35 31 0 71 35 83 73 13 39
2 94 -28 135 -48 68 -167 89 -234 42 -63 -45 -79 -74 -85 -151 -4 -56 -7 -67
-18 -58 -10 8 -11 31 -7 92 3 46 1 99 -5 120 -10 36 -9 38 20 53 45 23 167 53
221 53 26 1 64 -6 84 -14z m-1467 -38 l95 -32 0 -99 c0 -61 -4 -101 -11 -103
-5 -2 -20 21 -32 50 -44 105 -111 151 -208 145 -71 -4 -104 -23 -141 -78 -58
-85 -3 -210 92 -210 30 0 41 20 25 50 -15 29 -3 59 28 71 56 21 97 -17 95 -88
-2 -81 -110 -129 -199 -87 -136 65 -171 227 -72 339 74 85 169 97 328 42z
m880 -23 c0 -9 -7 -14 -17 -12 -25 5 -28 28 -4 28 12 0 21 -6 21 -16z m-218
-205 c86 -18 87 -19 36 -45 -26 -13 -49 -28 -53 -34 -13 -21 -31 -8 -47 34
-23 61 -20 62 64 45z m388 -66 c0 -27 -65 -129 -116 -181 -102 -103 -225 -144
-363 -123 -95 15 -168 44 -226 89 l-48 37 42 7 c22 4 47 11 55 15 31 18 83 71
105 106 12 20 24 37 26 37 1 0 14 -24 29 -52 32 -65 41 -76 88 -112 44 -33 70
-29 89 16 12 29 11 32 -14 52 -15 12 -27 27 -27 33 0 17 94 49 180 62 137 20
180 24 180 14z m886 -125 c43 -20 104 -81 104 -104 0 -7 -21 -3 -57 10 -70 25
-254 29 -316 7 -21 -7 -41 -11 -43 -8 -16 16 87 99 144 118 38 12 117 2 168
-23z m-2449 10 c31 -13 103 -77 103 -91 0 -11 -53 1 -104 24 -51 23 -98 24
-139 2 -49 -26 -140 -63 -145 -58 -7 6 48 72 76 92 62 42 152 55 209 31z
m1605 -25 c15 -35 165 -118 231 -129 20 -4 37 -10 37 -14 0 -4 -25 -12 -55
-19 -101 -23 -208 -150 -256 -303 -11 -38 -18 -72 -15 -76 11 -11 160 39 209
70 26 17 50 28 53 25 7 -6 -5 -89 -15 -106 -8 -12 -156 -65 -212 -76 -31 -6
-38 -2 -82 43 l-49 50 27 88 c35 113 84 211 129 256 20 20 36 38 36 42 0 3
-16 8 -35 12 -26 5 -44 1 -70 -15 -20 -12 -40 -21 -46 -21 -19 0 -8 58 17 86
14 16 37 44 51 62 25 32 38 39 45 25z m-879 -42 c45 -64 31 -110 -25 -86 -35
14 -92 5 -116 -19 -14 -14 -11 -20 30 -58 24 -24 60 -65 78 -92 32 -48 100
-220 100 -255 0 -26 -52 -71 -83 -71 -29 0 -129 35 -194 68 -31 16 -42 29 -47
53 -3 18 -4 34 -1 37 3 3 31 -7 62 -23 65 -32 189 -75 196 -69 6 6 -37 124
-69 186 -36 72 -96 146 -149 188 -25 19 -45 38 -45 41 0 4 18 16 40 28 23 12
71 41 108 66 37 25 71 45 77 45 5 0 22 -18 38 -39z m-772 -151 c-1 -36 5 -135
14 -220 8 -85 15 -160 15 -167 0 -23 -50 -71 -82 -77 -71 -14 -102 -62 -54
-84 13 -6 44 -14 70 -17 25 -4 46 -11 46 -15 0 -10 -81 -44 -139 -60 -121 -32
-219 39 -204 147 7 55 -8 60 -63 23 -25 -18 -48 -29 -52 -26 -12 13 -14 139
-2 198 17 89 50 156 108 219 65 71 164 125 253 137 96 14 93 16 90 -58z m2499
51 c61 -19 65 -25 52 -68 -9 -29 -9 -77 1 -213 8 -96 12 -177 11 -179 -2 -2
-17 8 -35 23 -33 28 -43 28 -112 -1 -20 -9 -39 -14 -41 -12 -8 8 -9 225 -2
261 10 46 -10 138 -30 138 -30 0 -36 -40 -32 -243 l3 -202 -28 -47 c-16 -27
-33 -48 -37 -48 -5 0 -13 23 -19 50 -29 133 -62 142 -117 34 -22 -42 -46 -81
-55 -87 -30 -19 -47 -1 -54 58 -8 59 -28 71 -33 19 -8 -90 -25 -97 -41 -17
-34 168 13 329 127 435 56 53 74 63 162 95 55 20 79 23 155 19 50 -2 106 -9
125 -15z m-2303 -36 c87 -43 162 -121 209 -218 104 -218 3 -494 -221 -597 -70
-33 -115 -42 -135 -30 -13 8 -13 14 2 40 28 50 -2 86 -61 74 -48 -10 -39 18
19 61 50 36 80 78 80 110 0 9 -12 27 -27 41 -39 36 -20 41 24 5 32 -27 45 -31
93 -30 81 1 211 47 230 81 8 15 11 30 7 34 -4 4 -39 -2 -79 -14 l-73 -21 -23
22 c-13 12 -33 35 -45 51 -20 28 -20 29 -2 42 12 9 46 14 91 14 40 0 76 4 79
10 3 5 -5 21 -19 35 -67 67 -227 -7 -213 -98 3 -18 8 -43 12 -56 6 -18 5 -23
-6 -19 -35 12 -49 64 -69 263 -27 267 -28 249 18 241 20 -4 69 -22 109 -41z
m868 -47 c80 -22 190 -19 264 7 28 9 48 12 54 6 12 -12 5 -237 -8 -250 -7 -7
-27 -5 -60 5 -65 20 -243 15 -299 -10 -22 -9 -43 -13 -48 -8 -11 11 -23 244
-14 267 4 12 12 15 24 9 9 -4 49 -16 87 -26z m1631 -40 c88 -93 134 -199 134
-310 0 -59 -15 -63 -24 -7 -6 40 -44 90 -75 100 -15 5 -12 19 11 51 10 14 9
21 -6 37 -24 26 -38 26 -61 1 -17 -19 -17 -21 0 -53 17 -32 17 -34 -4 -72 -23
-44 -28 -110 -9 -121 7 -4 28 -10 48 -14 41 -6 53 -35 20 -45 -40 -13 -87 3
-98 33 -10 25 -32 448 -24 465 6 12 35 -9 88 -65z m-3225 -70 c22 -6 39 -14
39 -18 0 -4 -10 -33 -21 -66 -16 -44 -22 -85 -23 -160 l-1 -102 -145 -7 c-122
-5 -153 -4 -194 10 -40 14 -50 14 -58 3 -12 -17 -2 -67 18 -89 23 -25 12 -35
-44 -43 -27 -3 -73 -18 -103 -33 -53 -26 -152 -94 -163 -111 -7 -12 105 -96
169 -127 28 -14 69 -28 91 -31 66 -9 68 -11 45 -40 -21 -27 -27 -69 -13 -91 6
-10 17 -8 47 7 47 24 80 25 215 5 76 -12 111 -13 133 -5 17 5 31 10 33 10 2 0
3 -20 2 -44 -2 -40 26 -126 42 -126 3 0 16 20 27 44 28 57 72 106 144 161 108
82 190 114 189 73 -1 -29 -89 -182 -148 -257 -35 -44 -88 -98 -119 -121 -184
-140 -423 -129 -423 19 0 36 26 68 62 77 23 5 34 0 65 -31 34 -34 38 -36 50
-19 50 68 -44 164 -145 149 -54 -8 -109 -56 -118 -104 -4 -17 -9 -31 -13 -31
-3 0 -21 26 -39 58 -18 31 -54 80 -80 108 -109 117 -310 276 -368 290 -34 9
-30 28 8 42 107 39 383 289 450 409 l32 57 9 -37 c5 -21 24 -53 42 -72 30 -33
37 -35 93 -35 54 0 65 4 96 30 39 35 52 74 36 114 l-10 27 -34 -35 c-76 -81
-173 -7 -122 92 13 25 37 43 76 55 29 10 133 7 171 -5z m3614 -14 c76 -36 86
-133 17 -168 -33 -17 -68 -6 -98 31 -28 33 -44 22 -44 -31 0 -64 53 -106 133
-106 63 0 108 32 127 93 8 26 17 47 20 47 3 0 21 -29 40 -63 64 -114 274 -305
417 -380 35 -17 63 -34 63 -37 0 -3 -28 -20 -63 -37 -34 -18 -92 -55 -128 -83
-87 -65 -248 -234 -290 -304 -34 -56 -49 -68 -49 -41 0 32 -39 92 -67 103 -81
30 -135 21 -178 -29 -25 -31 -33 -81 -16 -108 7 -11 15 -7 37 17 41 45 74 50
112 17 38 -32 41 -65 12 -113 -37 -61 -138 -79 -251 -46 -82 25 -124 49 -184
109 -118 119 -264 350 -237 377 37 37 278 -155 330 -264 13 -27 26 -48 30 -48
13 1 39 45 46 77 5 22 2 44 -10 68 -9 20 -15 38 -13 40 3 2 22 0 44 -5 25 -6
82 -5 149 2 94 9 117 8 172 -7 34 -9 68 -14 73 -10 17 10 13 47 -10 84 -11 18
-19 34 -17 35 2 1 35 10 73 20 84 21 153 57 209 108 l41 38 -35 31 c-54 47
-169 107 -230 120 -30 7 -57 14 -59 15 -2 2 6 15 18 30 22 27 27 60 13 81 -6
10 -17 8 -47 -7 -47 -24 -84 -25 -188 -5 -43 8 -95 15 -115 15 l-37 0 3 83 c3
63 -1 104 -18 166 -12 45 -20 84 -18 87 10 9 124 22 158 17 19 -2 49 -11 65
-19z m-1767 -170 c26 -9 67 -27 91 -41 l43 -25 -5 -62 c-3 -33 0 -110 5 -170
12 -141 7 -154 -38 -88 -19 29 -37 52 -41 52 -4 0 -15 -7 -25 -17 -25 -23 -23
-75 7 -163 33 -96 32 -110 -2 -110 -61 1 -85 48 -104 198 -13 99 -12 102 9
125 22 23 28 60 16 91 -7 17 -34 22 -34 6 0 -5 -5 -10 -10 -10 -7 0 -8 23 -5
63 6 67 -7 109 -36 115 -25 5 -31 -25 -14 -74 16 -48 18 -73 9 -98 -8 -21 -24
-21 -24 0 0 14 -3 14 -15 4 -18 -15 -20 -91 -3 -108 7 -7 20 -12 31 -12 15 0
17 -4 10 -22 -10 -28 -10 -116 0 -178 6 -38 4 -49 -14 -70 -17 -20 -31 -25
-66 -25 -62 0 -88 31 -79 95 18 123 18 146 2 159 -26 22 -48 -7 -101 -135 -26
-63 -51 -117 -55 -119 -27 -17 -60 30 -71 99 -10 60 -15 66 -35 38 -24 -34
-34 -26 -34 26 0 136 55 268 148 353 75 68 129 94 257 123 34 7 133 -3 183
-20z m1428 -58 c10 -8 16 -17 13 -20 -9 -9 -59 11 -59 24 0 14 23 12 46 -4z
m-272 -62 c26 -26 19 -43 -21 -49 -21 -3 -50 -8 -65 -10 -54 -9 -38 25 27 59
37 20 40 20 59 0z m-898 -98 c165 -304 -29 -677 -362 -694 -157 -8 -294 56
-391 183 -48 63 -85 145 -65 145 5 0 12 -13 15 -28 8 -37 59 -92 86 -92 35 0
68 42 82 104 16 72 29 81 29 20 0 -59 31 -109 77 -125 41 -13 104 3 137 36 31
31 37 31 66 0 36 -38 89 -51 128 -31 18 9 39 27 48 41 18 27 21 123 5 154 -8
13 -8 22 -1 26 18 11 37 -57 44 -153 7 -105 15 -132 34 -109 25 30 32 117 22
261 -15 198 -17 347 -6 343 5 -2 28 -38 52 -81z m608 12 c40 -115 146 -168
146 -73 0 36 -7 33 123 51 26 3 63 17 83 30 l35 24 9 -24 c29 -76 127 -88 197
-23 35 32 36 16 2 -52 -68 -135 -212 -231 -359 -239 -136 -7 -261 40 -362 136
-68 65 -74 83 -23 75 46 -7 69 13 91 81 28 85 32 86 58 14z m-2564 -13 c0 -75
61 -164 127 -186 24 -8 47 -8 84 0 74 16 82 15 67 -8 -10 -17 -9 -23 7 -41 14
-16 26 -19 52 -14 25 5 34 2 39 -11 12 -31 -10 -38 -78 -26 -127 22 -247 103
-313 210 -39 66 -43 85 -17 100 27 17 32 13 32 -24z m1073 -14 c5 -5 1 -26 -9
-47 -24 -56 -30 -233 -10 -299 11 -34 12 -53 5 -60 -6 -6 -73 -10 -167 -10
-165 1 -242 14 -325 57 -42 21 -41 28 13 48 116 45 217 147 277 277 l26 55 91
-7 c50 -3 95 -10 99 -14z m1191 -16 c77 -140 167 -234 271 -286 36 -17 65 -33
65 -34 0 -10 -82 -48 -143 -67 -62 -20 -94 -23 -234 -23 -89 0 -164 2 -167 5
-3 3 2 26 11 50 25 70 28 186 8 275 -9 42 -13 81 -8 85 9 10 78 17 142 16 33
-1 47 -6 55 -21z m-2370 -40 c43 -77 104 -150 166 -196 79 -59 80 -57 -20 -91
-56 -20 -85 -23 -215 -23 -113 0 -163 4 -205 17 -266 83 -200 271 108 308 106
12 153 8 166 -15z m3609 -15 c85 -26 157 -89 157 -137 0 -41 -37 -93 -85 -120
-119 -65 -449 -72 -566 -12 -22 11 -39 21 -39 23 0 3 26 21 58 40 68 41 137
112 183 186 l32 53 96 -6 c55 -3 125 -15 164 -27z m-3062 -321 c104 -95 232
-169 293 -169 33 0 38 -10 19 -39 -9 -14 -20 -44 -23 -66 -5 -36 -9 -41 -47
-55 l-42 -14 -43 49 c-86 101 -207 219 -215 211 -4 -4 -8 -44 -8 -89 1 -68 5
-91 28 -138 33 -67 33 -71 5 -60 -56 21 -164 -33 -199 -99 -22 -41 -24 -108
-5 -153 12 -31 71 -90 96 -99 18 -6 3 -88 -16 -88 -23 0 -87 36 -110 62 -47
51 -59 89 -58 178 1 92 23 159 114 355 23 50 48 106 55 125 41 110 53 130 83
130 20 0 43 -13 73 -41z m2338 -21 c11 -29 43 -105 71 -168 147 -328 165 -430
97 -531 -26 -39 -102 -93 -117 -84 -22 14 -10 61 21 84 34 25 68 91 69 131 0
84 -72 181 -157 209 -24 8 -43 19 -43 25 0 6 9 35 20 64 24 63 25 106 4 177
-10 36 -19 52 -28 49 -20 -8 -183 -179 -212 -224 -15 -22 -34 -40 -43 -39 -40
1 -54 16 -68 69 -7 29 -12 54 -11 55 2 0 34 14 72 30 69 28 195 116 250 174
17 17 35 31 42 31 7 0 22 -24 33 -52z m-1595 -165 c25 -27 46 -54 46 -61 0
-27 -53 -172 -64 -172 -6 0 -23 11 -37 24 l-26 24 18 54 c17 50 24 88 15 88
-15 0 -148 -46 -178 -61 -40 -20 -168 -27 -168 -10 0 12 53 53 97 75 31 16
230 85 245 86 4 0 27 -21 52 -47z m928 -14 c79 -34 158 -84 158 -99 0 -15 -93
-12 -115 4 -26 17 -185 78 -195 74 -4 -2 5 -34 20 -73 35 -85 36 -101 8 -116
-28 -15 -39 0 -72 97 l-25 74 42 40 c50 49 66 49 179 -1z m-701 -126 c65 -24
239 -24 302 1 27 10 51 15 55 12 12 -12 14 -241 3 -313 -27 -176 -117 -313
-205 -313 -63 0 -141 74 -176 169 -43 113 -63 371 -35 444 9 21 3 21 56 0z
m-496 -64 c79 -15 187 -70 242 -125 54 -55 100 -150 115 -238 11 -65 5 -96
-12 -66 -27 46 -37 55 -54 41 -9 -7 -16 -23 -16 -35 0 -11 -5 -28 -10 -36 -9
-13 -13 -11 -30 9 -18 21 -22 22 -38 9 -37 -32 -92 -28 -92 6 0 24 -31 27 -57
6 -37 -29 -93 -27 -123 5 -14 15 -33 25 -45 23 -19 -3 -20 -9 -17 -86 2 -67
-1 -84 -13 -88 -20 -8 -42 21 -50 66 -8 44 17 115 53 153 59 62 173 107 271
107 74 0 121 43 74 69 -34 17 -236 71 -269 71 -41 0 -90 -39 -81 -63 5 -13 20
-17 67 -17 33 0 60 -4 60 -10 0 -5 -17 -17 -37 -27 -53 -24 -134 -108 -163
-168 -26 -53 -33 -137 -16 -201 7 -28 5 -32 -16 -36 -42 -7 -58 1 -58 33 0 16
6 38 12 49 17 26 0 55 -32 55 -37 0 -47 -28 -25 -69 17 -32 18 -38 5 -51 -12
-12 -19 -12 -40 -2 -48 24 -62 91 -38 182 7 24 9 48 5 52 -4 4 -30 -15 -57
-42 -27 -27 -52 -46 -56 -42 -14 13 15 149 44 206 40 81 84 132 152 180 113
80 217 104 345 80z m1480 1 c160 -26 323 -176 350 -322 6 -33 5 -37 -17 -40
-18 -2 -24 -10 -26 -38 -5 -61 -10 -66 -37 -40 l-25 23 -23 -21 c-29 -28 -52
-28 -71 -1 l-15 22 -36 -32 c-20 -17 -44 -31 -55 -31 -23 0 -50 36 -50 68 0
30 -17 62 -34 62 -7 0 -23 -11 -36 -25 -29 -31 -35 -31 -57 1 -16 25 -16 27 8
45 50 41 121 70 196 81 81 12 113 29 113 59 0 24 -18 33 -128 58 -134 30 -174
28 -224 -16 -31 -28 -11 -43 58 -43 35 0 64 -4 64 -9 0 -5 -33 -35 -74 -67
-113 -90 -140 -145 -135 -272 4 -75 4 -75 -23 -83 -36 -9 -41 1 -33 60 6 43 4
49 -18 64 -23 15 -26 15 -43 -4 -17 -19 -17 -22 -1 -66 21 -57 10 -76 -30 -53
-40 23 -65 63 -70 114 -3 25 -9 46 -14 46 -4 0 -17 -12 -29 -27 -64 -82 -44
130 24 251 65 116 199 215 318 235 74 12 104 12 173 1z m-1945 -80 c0 -6 -7
-13 -15 -16 -9 -4 -27 -26 -41 -50 -26 -44 -44 -50 -44 -13 0 30 17 57 48 73
32 18 52 20 52 6z m2704 -275 c1 -83 -23 -160 -99 -320 -28 -60 -58 -125 -65
-142 -7 -18 -17 -33 -22 -33 -5 0 -76 -31 -156 -69 -81 -39 -173 -77 -206 -86
-72 -21 -184 -16 -241 10 l-40 18 60 8 c68 8 162 48 256 107 35 22 94 51 132
63 37 12 67 25 67 29 0 4 -16 15 -35 26 -19 10 -34 21 -33 24 2 3 16 38 32 78
31 78 47 87 52 32 4 -35 31 -81 51 -87 6 -2 14 13 17 33 4 20 32 84 63 143
104 200 115 226 119 271 2 25 4 47 4 50 1 3 11 -15 23 -40 14 -32 21 -65 21
-115z m-3154 98 c0 -14 30 -73 123 -243 20 -36 44 -94 53 -130 10 -36 21 -69
26 -74 11 -14 56 31 70 71 7 18 15 33 19 33 4 0 17 -25 29 -56 l23 -56 -31
-25 c-52 -40 -45 -52 38 -68 47 -10 85 -29 145 -76 64 -48 152 -89 212 -97 76
-11 66 -32 -15 -32 -88 0 -168 24 -326 99 -66 31 -140 66 -163 76 -25 10 -45
27 -49 39 -3 12 -35 82 -69 156 -82 175 -106 250 -109 333 -1 37 0 70 2 72 8
8 22 -6 22 -22z m2230 -228 c14 -49 7 -86 -12 -67 -14 14 -24 112 -11 112 6 0
16 -20 23 -45z m126 -10 c23 -67 62 -82 117 -43 28 20 32 21 58 6 15 -9 38
-14 51 -11 21 5 20 3 -10 -29 -37 -39 -95 -71 -163 -89 -43 -12 -48 -11 -100
17 -30 17 -53 34 -52 40 7 25 40 112 52 132 17 31 30 24 47 -23z m-1090 -10
c15 -61 -52 -193 -143 -280 -160 -152 -433 -152 -613 2 -45 39 -116 152 -126
200 -8 41 2 83 20 83 10 0 12 -11 9 -43 -6 -55 24 -119 70 -148 33 -21 82 -21
213 -3 30 4 54 0 90 -16 40 -19 61 -22 124 -18 43 3 89 12 108 22 42 22 176
148 203 192 25 41 36 43 45 9z m-259 -17 c21 -19 26 -20 64 -9 75 23 80 -17 8
-69 -65 -47 -141 -66 -208 -52 -30 7 -59 16 -63 20 -5 5 1 28 14 53 20 38 28
45 63 49 22 3 49 11 60 18 28 16 36 15 62 -10z m1747 -5 c-4 -16 -22 -61 -40
-101 -69 -151 -213 -258 -365 -269 -153 -11 -264 30 -370 136 -64 64 -131 173
-116 188 10 10 25 -7 32 -36 7 -35 38 -65 87 -86 50 -20 87 -19 148 5 28 11
54 20 59 20 13 0 101 -70 101 -81 0 -6 -14 -7 -35 -3 -36 6 -65 -7 -65 -30 1
-29 20 -39 78 -42 50 -2 64 1 78 17 15 17 16 24 6 40 -10 15 -10 20 0 23 7 2
36 9 63 15 63 15 142 67 191 125 21 25 54 52 74 60 20 8 42 21 49 30 21 24 32
19 25 -11z m-1304 -100 c0 -6 -17 -17 -37 -23 -21 -7 -53 -19 -71 -27 -18 -9
-35 -13 -39 -10 -3 4 4 26 15 50 11 24 24 60 27 80 l7 37 49 -47 c27 -27 49
-53 49 -60z m340 45 c6 -24 15 -51 21 -61 14 -25 4 -33 -24 -19 -12 6 -34 16
-49 22 -16 5 -28 15 -28 21 0 9 59 79 67 79 1 0 7 -19 13 -42z m-379 -187
c-22 -39 -56 -94 -76 -121 -35 -48 -142 -150 -156 -150 -4 0 -20 -5 -36 -11
l-28 -11 40 -21 c23 -12 59 -21 86 -21 l46 0 -4 -61 c-3 -36 1 -92 11 -139 21
-102 20 -133 -4 -179 -11 -21 -18 -42 -15 -47 9 -15 59 -12 81 5 28 21 44 18
44 -10 0 -56 67 -189 139 -275 l21 -25 35 40 c39 45 99 162 110 215 4 19 11
45 16 58 l9 23 26 -20 c28 -22 78 -28 89 -11 4 6 0 27 -7 48 -16 45 -19 392
-3 392 6 -1 19 -7 29 -15 11 -8 31 -15 44 -15 25 0 102 38 102 51 0 4 -24 18
-53 33 -61 30 -166 129 -212 201 -39 61 -77 137 -70 143 15 15 190 -85 305
-173 125 -96 170 -158 205 -280 35 -119 -2 -236 -79 -251 -47 -8 -74 2 -91 36
-22 43 -19 58 20 97 20 20 34 38 32 40 -15 14 -79 14 -102 -1 -105 -69 -76
-228 45 -253 37 -7 38 -20 3 -35 -71 -31 -276 -224 -356 -334 -20 -29 -49 -77
-63 -108 -14 -31 -30 -56 -35 -56 -5 0 -14 12 -20 26 -51 135 -330 436 -442
477 -21 8 -14 27 9 27 28 0 75 31 94 63 35 57 19 156 -31 191 -26 18 -76 21
-99 6 -12 -7 -9 -14 18 -41 40 -39 42 -79 7 -114 -76 -77 -187 25 -172 158 15
134 80 249 186 326 36 26 82 62 101 80 40 37 221 132 233 121 4 -3 -10 -39
-32 -79z m220 -44 c72 -47 106 -186 96 -391 -7 -143 -33 -231 -87 -287 -37
-39 -42 -41 -85 -37 -55 7 -79 26 -112 92 -85 169 -64 510 39 602 55 50 97 56
149 21z"/>
</g>
</svg>
